<svg width="151" height="113" viewBox="0 0 151 113" fill="none" xmlns="http://www.w3.org/2000/svg">
<path fill-rule="evenodd" clip-rule="evenodd" d="M102.439 14.2912C102.803 15.5318 103.275 16.7504 103.857 17.9471C102.659 18.8499 101.714 19.9577 101.021 21.2706C99.2254 20.8644 97.3347 20.532 95.3498 20.2735C85.5986 16.316 75.4369 15.2082 64.8662 16.95C63.4802 15.7364 61.8261 15.404 59.9038 15.9529C60.3764 16.1745 60.849 16.3961 61.3216 16.6176C57.3382 17.1314 53.7936 18.6824 50.6878 21.2706C49.6244 21.6029 48.561 21.9353 47.4977 22.2676C46.477 21.8372 45.4136 21.6156 44.3075 21.6029C44.3075 22.9324 44.3075 24.2618 44.3075 25.5912C41.1048 25.1116 40.6321 23.6714 42.8897 21.2706C42.2823 20.8125 41.8098 20.2586 41.4718 19.6088C43.3408 18.1947 44.995 16.6438 46.4343 14.9559C59.2641 6.99198 73.2059 4.88705 88.2606 8.64118C93.3428 9.82063 98.0685 11.704 102.439 14.2912Z" fill="#08AADF"/>
<path fill-rule="evenodd" clip-rule="evenodd" d="M95.6333 18.0195C98.1223 18.7656 100.656 19.5187 103.236 20.2786C104.531 20.7918 105.683 21.3441 106.692 21.9353C104.558 21.5229 102.484 21.0711 100.472 20.5798C97.6537 18.9597 93.5065 18.0561 88.0301 17.8688C86.4597 17.5854 85.0774 17.1837 83.883 16.664C77.6532 16.4977 71.4322 16.5479 65.2206 16.8146C65.2206 16.6138 65.451 16.5134 65.9118 16.5134C76.2183 15.7241 86.1259 16.2261 95.6333 18.0195Z" fill="#08AADF"/>
<path fill-rule="evenodd" clip-rule="evenodd" d="M46.4343 14.9559C44.995 16.6438 43.3408 18.1947 41.4718 19.6088C41.8098 20.2586 42.2823 20.8125 42.8897 21.2706C40.6321 23.6714 41.1048 25.1116 44.3075 25.5912C44.3075 24.2618 44.3075 22.9324 44.3075 21.6029C45.4136 21.6156 46.477 21.8372 47.4977 22.2677C48.561 21.9353 49.6244 21.6029 50.6878 21.2706C53.7936 18.6824 57.3382 17.1314 61.3216 16.6177C60.849 16.3961 60.3764 16.1745 59.9038 15.9529C61.8261 15.404 63.4802 15.7364 64.8662 16.95C64.3936 16.95 64.1573 17.1716 64.1573 17.6147C51.744 20.4031 41.8191 26.6071 34.3826 36.2265C33.6737 36.2265 32.9648 36.2265 32.2559 36.2265C32.3619 36.9257 32.2437 37.5905 31.9014 38.2206C30.0496 37.7478 28.9863 36.64 28.7113 34.8971C29.9513 31.9089 31.3692 29.0285 32.9648 26.2559C36.4552 21.4124 40.945 17.6458 46.4343 14.9559Z" fill="#08AADF"/>
<path fill-rule="evenodd" clip-rule="evenodd" d="M84.007 36.8912C81.9597 36.552 80.3058 36.9952 79.0446 38.2206C78.4037 37.7493 78.1677 37.0846 78.3357 36.2265C80.3809 36.0228 82.2716 36.2443 84.007 36.8912Z" fill="#08AADF"/>
<path fill-rule="evenodd" clip-rule="evenodd" d="M118.744 29.5794C122.325 33.8724 124.688 38.747 125.833 44.2029C124.822 43.1072 124.231 41.7778 124.061 40.2147C123.825 40.4362 123.588 40.6579 123.352 40.8794C123.132 39.5128 122.777 38.1834 122.289 36.8912C119.757 35.0242 118.575 32.5869 118.744 29.5794Z" fill="#08AADF"/>
<path fill-rule="evenodd" clip-rule="evenodd" d="M96.7676 38.8853C97.8168 41.9115 96.8718 44.3488 93.9319 46.1971C95.1513 43.8759 96.097 41.4386 96.7676 38.8853Z" fill="#08AADF"/>
<path fill-rule="evenodd" clip-rule="evenodd" d="M84.007 36.8912C88.2464 37.6648 92.4999 38.3295 96.7676 38.8853C96.097 41.4386 95.1513 43.8759 93.9319 46.1971C92.3567 48.7076 91.1749 51.3664 90.3873 54.1735C89.6415 54.2729 88.9326 54.1621 88.2606 53.8412C87.602 52.2516 86.5386 51.033 85.0704 50.1853C82.3815 51.6116 79.6642 52.941 76.9178 54.1735C73.4548 54.9799 70.1462 55.9769 66.993 57.1647C65.8114 55.6137 64.3936 54.2843 62.7394 53.1765C64.7506 52.9187 66.5229 53.4726 68.0563 54.8382C68.4108 54.6167 68.7653 54.3951 69.1197 54.1735C68.0278 51.6435 68.973 50.3141 71.9554 50.1853C71.9675 48.8128 72.2035 47.4834 72.6643 46.1971C75.3377 44.8284 77.9373 43.2774 80.4624 41.5441C79.9846 40.4171 79.5118 39.3093 79.0446 38.2206C80.3058 36.9952 81.9597 36.552 84.007 36.8912Z" fill="#08AADF"/>
<path fill-rule="evenodd" clip-rule="evenodd" d="M102.439 14.2912C108.368 17.8589 113.331 22.2902 117.326 27.5853C116.233 27.0531 115.052 26.8315 113.782 26.9206C113.782 26.0343 113.782 25.148 113.782 24.2618C112.837 24.2618 111.891 24.2618 110.946 24.2618C110.123 21.2106 107.996 19.7705 104.566 19.9412C106.08 21.6483 106.08 23.1992 104.566 24.5941C106.526 25.3234 107.707 26.6528 108.11 28.5824C109.103 29.5383 110.285 30.0922 111.655 30.2441C111.787 31.6163 112.142 32.9457 112.718 34.2324C113.427 33.3461 114.136 33.3461 114.845 34.2324C116.22 39.4296 117.875 44.5256 119.807 49.5206C120.28 54.1735 120.28 58.8265 119.807 63.4794C119.772 64.971 119.181 66.0789 118.035 66.8029C119.816 57.396 118.753 48.3116 114.845 39.55C113.484 37.663 112.302 35.6689 111.3 33.5677C109.753 31.9676 108.217 30.4167 106.692 28.9147C105.657 27.61 104.476 26.3914 103.148 25.2588C100.501 23.5819 97.9026 21.9201 95.3497 20.2735C97.3347 20.532 99.2254 20.8644 101.021 21.2706C101.714 19.9577 102.659 18.8499 103.857 17.9471C103.275 16.7504 102.803 15.5318 102.439 14.2912Z" fill="#08AADF"/>
<path fill-rule="evenodd" clip-rule="evenodd" d="M32.9648 26.2559C31.3691 29.0285 29.9513 31.9089 28.7113 34.8971C28.9862 36.64 30.0496 37.7478 31.9014 38.2206C32.2437 37.5905 32.3618 36.9257 32.2559 36.2265C32.9648 36.2265 33.6737 36.2265 34.3826 36.2265C25.8754 49.3033 23.7487 63.2621 28.0023 78.1029C28.0023 78.5463 28.0023 78.989 28.0023 79.4324C18.1082 60.7323 19.7623 43.0067 32.9648 26.2559Z" fill="#08AADF"/>
<path fill-rule="evenodd" clip-rule="evenodd" d="M117.326 27.5853C118.323 27.8998 118.796 28.5645 118.744 29.5794C118.575 32.5869 119.757 35.0242 122.289 36.8912C122.777 38.1834 123.132 39.5128 123.352 40.8794C123.588 40.6579 123.825 40.4363 124.061 40.2147C124.231 41.7778 124.822 43.1072 125.833 44.2029C125.373 52.3931 125.019 60.5912 124.77 68.7971C123.461 70.837 122.752 73.0525 122.643 75.4441C122.147 76.4625 121.32 77.1272 120.162 77.4382C118.424 74.0815 117.715 70.5366 118.035 66.8029C119.182 66.0789 119.772 64.971 119.808 63.4794C120.28 58.8265 120.28 54.1735 119.808 49.5206C117.875 44.5256 116.22 39.4296 114.845 34.2324C114.136 33.3461 113.427 33.3461 112.718 34.2324C112.142 32.9457 111.788 31.6163 111.655 30.2441C110.285 30.0922 109.103 29.5383 108.11 28.5824C107.707 26.6528 106.526 25.3234 104.566 24.5941C106.08 23.1992 106.08 21.6483 104.566 19.9412C107.996 19.7705 110.123 21.2106 110.946 24.2618C111.891 24.2618 112.837 24.2618 113.782 24.2618C113.782 25.148 113.782 26.0343 113.782 26.9206C115.052 26.8315 116.233 27.0531 117.326 27.5853Z" fill="#08AADF"/>
<path fill-rule="evenodd" clip-rule="evenodd" d="M125.833 44.2029C129.966 59.1758 127.131 72.9129 117.326 85.4147C117.744 83.4179 118.453 81.5348 119.453 79.7647C119.582 78.2332 119.11 77.9009 118.035 78.7676C117.35 77.5074 117.114 76.178 117.326 74.7794C116.411 74.9369 115.702 74.7156 115.2 74.1147C115.828 71.5097 116.774 69.0729 118.035 66.8029C117.715 70.5366 118.424 74.0815 120.162 77.4382C121.32 77.1272 122.147 76.4624 122.643 75.4441C122.752 73.0525 123.461 70.837 124.77 68.7971C125.019 60.5912 125.373 52.3931 125.833 44.2029Z" fill="#08AADF"/>
<path fill-rule="evenodd" clip-rule="evenodd" d="M28.0023 78.1029C28.9984 79.2496 29.3528 80.579 29.0657 82.0912C28.2234 81.3846 27.8689 80.4979 28.0023 79.4324C28.0023 78.989 28.0023 78.5463 28.0023 78.1029Z" fill="#08AADF"/>
<path fill-rule="evenodd" clip-rule="evenodd" d="M115.2 74.1147C115.702 74.7156 116.411 74.9369 117.326 74.7794C117.114 76.178 117.35 77.5074 118.035 78.7676C119.11 77.9009 119.582 78.2332 119.453 79.7647C118.453 81.5348 117.744 83.4179 117.326 85.4147C117.326 85.8581 117.09 86.0794 116.617 86.0794C114.491 85.8581 113.546 86.7441 113.782 88.7382C112.24 88.6173 110.822 88.1739 109.528 87.4088C107.785 88.6073 105.894 89.494 103.857 90.0676C104.96 86.9322 107.205 84.7168 110.592 83.4206C111.685 80.9353 112.749 78.4978 113.782 76.1088C113.73 75.0938 114.203 74.4291 115.2 74.1147Z" fill="#08AADF"/>
<path fill-rule="evenodd" clip-rule="evenodd" d="M72.6643 46.1971C72.2035 47.4834 71.9675 48.8128 71.9554 50.1853C68.973 50.3141 68.0278 51.6435 69.1197 54.1735C68.7653 54.3951 68.4108 54.6167 68.0563 54.8382C66.5229 53.4726 64.7506 52.9187 62.7394 53.1765C64.3936 54.2843 65.8114 55.6137 66.993 57.1647C70.1462 55.9769 73.4548 54.9799 76.9178 54.1735C71.3273 56.7452 66.2466 60.0687 61.6761 64.1441C55.5126 72.0887 55.6308 79.9541 62.0305 87.7412C66.6915 91.4788 72.1262 93.3626 78.3357 93.3912C79.6146 93.8312 81.0324 94.0526 82.5892 94.0559C85.1534 94.1237 87.5162 93.6803 89.6784 92.7265C100.158 90.1999 108.193 84.6609 113.782 76.1088C112.749 78.4978 111.685 80.9352 110.592 83.4206C107.205 84.7168 104.96 86.9322 103.857 90.0676C105.894 89.494 107.785 88.6073 109.528 87.4088C110.822 88.1739 112.24 88.6173 113.782 88.7382C113.546 86.7441 114.491 85.8581 116.617 86.0794C112.73 91.5692 107.531 95.6685 101.021 98.3765C88.5782 102.971 76.0544 103.192 63.4484 99.0412C51.243 92.2193 46.3987 82.1377 48.9155 68.7971C53.1046 57.8892 61.0209 50.3559 72.6643 46.1971Z" fill="#08AADF"/>
<path fill-rule="evenodd" clip-rule="evenodd" d="M89.6784 92.7265C87.5162 93.6803 85.1534 94.1237 82.5892 94.0559C81.0324 94.0526 79.6146 93.8312 78.3357 93.3912C82.1313 93.3453 85.9119 93.124 89.6784 92.7265Z" fill="#08AADF"/>
</svg>
