<svg width="203" height="190" viewBox="0 0 203 190" fill="none" xmlns="http://www.w3.org/2000/svg">
<path fill-rule="evenodd" clip-rule="evenodd" d="M112.439 14.2912C112.803 15.5318 113.275 16.7504 113.857 17.9471C112.659 18.8499 111.714 19.9577 111.021 21.2706C109.225 20.8644 107.335 20.532 105.35 20.2735C95.5986 16.316 85.4369 15.2082 74.8662 16.95C73.4802 15.7364 71.8261 15.404 69.9038 15.9529C70.3764 16.1745 70.849 16.3961 71.3216 16.6176C67.3382 17.1314 63.7936 18.6824 60.6878 21.2706C59.6244 21.6029 58.561 21.9353 57.4977 22.2676C56.477 21.8372 55.4136 21.6156 54.3075 21.6029C54.3075 22.9324 54.3075 24.2618 54.3075 25.5912C51.1048 25.1116 50.6321 23.6714 52.8897 21.2706C52.2823 20.8125 51.8098 20.2586 51.4718 19.6088C53.3408 18.1947 54.995 16.6438 56.4343 14.9559C69.2641 6.99198 83.2059 4.88705 98.2606 8.64118C103.343 9.82063 108.068 11.704 112.439 14.2912Z" fill="#08AADF"/>
<path fill-rule="evenodd" clip-rule="evenodd" d="M105.633 18.0195C108.122 18.7656 110.656 19.5187 113.236 20.2786C114.531 20.7918 115.683 21.3441 116.692 21.9353C114.558 21.5229 112.484 21.0711 110.472 20.5798C107.654 18.9597 103.507 18.0561 98.0301 17.8688C96.4597 17.5854 95.0774 17.1837 93.883 16.664C87.6532 16.4977 81.4322 16.5479 75.2206 16.8146C75.2206 16.6138 75.451 16.5134 75.9118 16.5134C86.2183 15.7241 96.1259 16.2261 105.633 18.0195Z" fill="#08AADF"/>
<path fill-rule="evenodd" clip-rule="evenodd" d="M56.4343 14.9559C54.995 16.6438 53.3408 18.1947 51.4718 19.6088C51.8098 20.2586 52.2823 20.8125 52.8897 21.2706C50.6321 23.6714 51.1048 25.1116 54.3075 25.5912C54.3075 24.2618 54.3075 22.9324 54.3075 21.6029C55.4136 21.6156 56.477 21.8372 57.4977 22.2677C58.561 21.9353 59.6244 21.6029 60.6878 21.2706C63.7936 18.6824 67.3382 17.1314 71.3216 16.6177C70.849 16.3961 70.3764 16.1745 69.9038 15.9529C71.8261 15.404 73.4802 15.7364 74.8662 16.95C74.3936 16.95 74.1573 17.1716 74.1573 17.6147C61.744 20.4031 51.8191 26.6071 44.3826 36.2265C43.6737 36.2265 42.9648 36.2265 42.2559 36.2265C42.3619 36.9257 42.2437 37.5905 41.9014 38.2206C40.0496 37.7478 38.9863 36.64 38.7113 34.8971C39.9513 31.9089 41.3692 29.0285 42.9648 26.2559C46.4552 21.4124 50.945 17.6458 56.4343 14.9559Z" fill="#08AADF"/>
<path fill-rule="evenodd" clip-rule="evenodd" d="M94.007 36.8912C91.9597 36.552 90.3058 36.9952 89.0446 38.2206C88.4037 37.7493 88.1677 37.0846 88.3357 36.2265C90.3809 36.0228 92.2716 36.2443 94.007 36.8912Z" fill="#08AADF"/>
<path fill-rule="evenodd" clip-rule="evenodd" d="M128.744 29.5794C132.325 33.8724 134.688 38.747 135.833 44.2029C134.822 43.1072 134.231 41.7778 134.061 40.2147C133.825 40.4362 133.588 40.6579 133.352 40.8794C133.132 39.5128 132.777 38.1834 132.289 36.8912C129.757 35.0242 128.575 32.5869 128.744 29.5794Z" fill="#08AADF"/>
<path fill-rule="evenodd" clip-rule="evenodd" d="M106.768 38.8853C107.817 41.9115 106.872 44.3488 103.932 46.1971C105.151 43.8759 106.097 41.4386 106.768 38.8853Z" fill="#08AADF"/>
<path fill-rule="evenodd" clip-rule="evenodd" d="M94.007 36.8912C98.2464 37.6648 102.5 38.3295 106.768 38.8853C106.097 41.4386 105.151 43.8759 103.932 46.1971C102.357 48.7076 101.175 51.3664 100.387 54.1735C99.6415 54.2729 98.9326 54.1621 98.2606 53.8412C97.602 52.2516 96.5386 51.033 95.0704 50.1853C92.3815 51.6116 89.6642 52.941 86.9178 54.1735C83.4548 54.9799 80.1462 55.9769 76.993 57.1647C75.8114 55.6137 74.3936 54.2843 72.7394 53.1765C74.7506 52.9187 76.5229 53.4726 78.0563 54.8382C78.4108 54.6167 78.7653 54.3951 79.1197 54.1735C78.0278 51.6435 78.973 50.3141 81.9554 50.1853C81.9675 48.8128 82.2035 47.4834 82.6643 46.1971C85.3377 44.8284 87.9373 43.2774 90.4624 41.5441C89.9846 40.4171 89.5118 39.3093 89.0446 38.2206C90.3058 36.9952 91.9597 36.552 94.007 36.8912Z" fill="#08AADF"/>
<path fill-rule="evenodd" clip-rule="evenodd" d="M112.439 14.2912C118.368 17.8589 123.331 22.2902 127.326 27.5853C126.233 27.0531 125.052 26.8315 123.782 26.9206C123.782 26.0343 123.782 25.148 123.782 24.2618C122.837 24.2618 121.891 24.2618 120.946 24.2618C120.123 21.2106 117.996 19.7705 114.566 19.9412C116.08 21.6483 116.08 23.1992 114.566 24.5941C116.526 25.3234 117.707 26.6528 118.11 28.5824C119.103 29.5383 120.285 30.0922 121.655 30.2441C121.787 31.6163 122.142 32.9457 122.718 34.2324C123.427 33.3461 124.136 33.3461 124.845 34.2324C126.22 39.4296 127.875 44.5256 129.807 49.5206C130.28 54.1735 130.28 58.8265 129.807 63.4794C129.772 64.971 129.181 66.0789 128.035 66.8029C129.816 57.396 128.753 48.3116 124.845 39.55C123.484 37.663 122.302 35.6689 121.3 33.5677C119.753 31.9676 118.217 30.4167 116.692 28.9147C115.657 27.61 114.476 26.3914 113.148 25.2588C110.501 23.5819 107.903 21.9201 105.35 20.2735C107.335 20.532 109.225 20.8644 111.021 21.2706C111.714 19.9577 112.659 18.8499 113.857 17.9471C113.275 16.7504 112.803 15.5318 112.439 14.2912Z" fill="#08AADF"/>
<path fill-rule="evenodd" clip-rule="evenodd" d="M42.9648 26.2559C41.3691 29.0285 39.9513 31.9089 38.7113 34.8971C38.9862 36.64 40.0496 37.7478 41.9014 38.2206C42.2437 37.5905 42.3618 36.9257 42.2559 36.2265C42.9648 36.2265 43.6737 36.2265 44.3826 36.2265C35.8754 49.3033 33.7487 63.2621 38.0023 78.1029C38.0023 78.5463 38.0023 78.989 38.0023 79.4324C28.1082 60.7323 29.7623 43.0067 42.9648 26.2559Z" fill="#08AADF"/>
<path fill-rule="evenodd" clip-rule="evenodd" d="M127.326 27.5853C128.323 27.8998 128.796 28.5645 128.744 29.5794C128.575 32.5869 129.757 35.0242 132.289 36.8912C132.777 38.1834 133.132 39.5128 133.352 40.8794C133.588 40.6579 133.825 40.4363 134.061 40.2147C134.231 41.7778 134.822 43.1072 135.833 44.2029C135.373 52.3931 135.019 60.5912 134.77 68.7971C133.461 70.837 132.752 73.0525 132.643 75.4441C132.147 76.4625 131.32 77.1272 130.162 77.4382C128.424 74.0815 127.715 70.5366 128.035 66.8029C129.182 66.0789 129.772 64.971 129.808 63.4794C130.28 58.8265 130.28 54.1735 129.808 49.5206C127.875 44.5256 126.22 39.4296 124.845 34.2324C124.136 33.3461 123.427 33.3461 122.718 34.2324C122.142 32.9457 121.788 31.6163 121.655 30.2441C120.285 30.0922 119.103 29.5383 118.11 28.5824C117.707 26.6528 116.526 25.3234 114.566 24.5941C116.08 23.1992 116.08 21.6483 114.566 19.9412C117.996 19.7705 120.123 21.2106 120.946 24.2618C121.891 24.2618 122.837 24.2618 123.782 24.2618C123.782 25.148 123.782 26.0343 123.782 26.9206C125.052 26.8315 126.233 27.0531 127.326 27.5853Z" fill="#08AADF"/>
<path fill-rule="evenodd" clip-rule="evenodd" d="M135.833 44.2029C139.966 59.1758 137.131 72.9129 127.326 85.4147C127.744 83.4179 128.453 81.5348 129.453 79.7647C129.582 78.2332 129.11 77.9009 128.035 78.7676C127.35 77.5074 127.114 76.178 127.326 74.7794C126.411 74.9369 125.702 74.7156 125.2 74.1147C125.828 71.5097 126.774 69.0729 128.035 66.8029C127.715 70.5366 128.424 74.0815 130.162 77.4382C131.32 77.1272 132.147 76.4624 132.643 75.4441C132.752 73.0525 133.461 70.837 134.77 68.7971C135.019 60.5912 135.373 52.3931 135.833 44.2029Z" fill="#08AADF"/>
<path fill-rule="evenodd" clip-rule="evenodd" d="M38.0023 78.1029C38.9984 79.2496 39.3528 80.579 39.0657 82.0912C38.2234 81.3846 37.8689 80.4979 38.0023 79.4324C38.0023 78.989 38.0023 78.5463 38.0023 78.1029Z" fill="#08AADF"/>
<path fill-rule="evenodd" clip-rule="evenodd" d="M125.2 74.1147C125.702 74.7156 126.411 74.9369 127.326 74.7794C127.114 76.178 127.35 77.5074 128.035 78.7676C129.11 77.9009 129.582 78.2332 129.453 79.7647C128.453 81.5348 127.744 83.4179 127.326 85.4147C127.326 85.8581 127.09 86.0794 126.617 86.0794C124.491 85.8581 123.546 86.7441 123.782 88.7382C122.24 88.6173 120.822 88.1739 119.528 87.4088C117.785 88.6073 115.894 89.494 113.857 90.0676C114.96 86.9322 117.205 84.7168 120.592 83.4206C121.685 80.9353 122.749 78.4978 123.782 76.1088C123.73 75.0938 124.203 74.4291 125.2 74.1147Z" fill="#08AADF"/>
<path fill-rule="evenodd" clip-rule="evenodd" d="M82.6643 46.1971C82.2035 47.4834 81.9675 48.8128 81.9554 50.1853C78.973 50.3141 78.0278 51.6435 79.1197 54.1735C78.7653 54.3951 78.4108 54.6167 78.0563 54.8382C76.5229 53.4726 74.7506 52.9187 72.7394 53.1765C74.3936 54.2843 75.8114 55.6137 76.993 57.1647C80.1462 55.9769 83.4548 54.9799 86.9178 54.1735C81.3273 56.7452 76.2466 60.0687 71.6761 64.1441C65.5126 72.0887 65.6308 79.9541 72.0305 87.7412C76.6915 91.4788 82.1262 93.3626 88.3357 93.3912C89.6146 93.8312 91.0324 94.0526 92.5892 94.0559C95.1534 94.1237 97.5162 93.6803 99.6784 92.7265C110.158 90.1999 118.193 84.6609 123.782 76.1088C122.749 78.4978 121.685 80.9352 120.592 83.4206C117.205 84.7168 114.96 86.9322 113.857 90.0676C115.894 89.494 117.785 88.6073 119.528 87.4088C120.822 88.1739 122.24 88.6173 123.782 88.7382C123.546 86.7441 124.491 85.8581 126.617 86.0794C122.73 91.5692 117.531 95.6685 111.021 98.3765C98.5782 102.971 86.0544 103.192 73.4484 99.0412C61.243 92.2193 56.3987 82.1377 58.9155 68.7971C63.1046 57.8892 71.0209 50.3559 82.6643 46.1971Z" fill="#08AADF"/>
<path fill-rule="evenodd" clip-rule="evenodd" d="M99.6784 92.7265C97.5162 93.6803 95.1534 94.1237 92.5892 94.0559C91.0324 94.0526 89.6146 93.8312 88.3357 93.3912C92.1313 93.3453 95.9119 93.124 99.6784 92.7265Z" fill="#08AADF"/>
<path d="M12.9785 117.059C12.9329 117.065 12.8678 117.081 12.7832 117.107C12.6986 117.133 12.5977 117.163 12.4805 117.195C12.3633 117.228 12.2331 117.257 12.0898 117.283C11.9531 117.309 11.8099 117.322 11.6602 117.322C11.0612 117.322 10.5762 117.231 10.2051 117.049C9.83398 116.873 9.53125 116.639 9.29688 116.346C9.06901 116.046 8.88997 115.708 8.75977 115.33C8.62956 114.952 8.50911 114.568 8.39844 114.178C8.28776 113.781 8.16406 113.393 8.02734 113.016C7.89714 112.638 7.71159 112.303 7.4707 112.01C7.22982 111.71 6.91732 111.473 6.5332 111.297C6.14909 111.115 5.65104 111.023 5.03906 111.023C4.9349 111.023 4.83073 111.027 4.72656 111.033C4.6224 111.033 4.52799 111.036 4.44336 111.043C4.36523 111.049 4.29688 111.056 4.23828 111.062C4.17969 111.062 4.14714 111.062 4.14062 111.062V115.623C4.14062 115.721 4.17318 115.815 4.23828 115.906C4.3099 115.997 4.41732 116.049 4.56055 116.062L5.61523 116.141V117H0.644531V116.141L1.67969 116.062C1.82292 116.049 1.93034 115.997 2.00195 115.906C2.08008 115.815 2.11914 115.721 2.11914 115.623V104.959C2.11914 104.861 2.08008 104.767 2.00195 104.676C1.93034 104.585 1.82292 104.533 1.67969 104.52L0.644531 104.441V103.582H5.85938C6.62109 103.582 7.30469 103.644 7.91016 103.768C8.51562 103.891 9.02995 104.093 9.45312 104.373C9.8763 104.653 10.1986 105.021 10.4199 105.477C10.6478 105.926 10.7617 106.479 10.7617 107.137C10.7617 107.664 10.6706 108.117 10.4883 108.494C10.306 108.872 10.0618 109.191 9.75586 109.451C9.45638 109.712 9.10807 109.923 8.71094 110.086C8.3138 110.249 7.90365 110.379 7.48047 110.477C8.02083 110.607 8.45378 110.789 8.7793 111.023C9.10482 111.251 9.36198 111.512 9.55078 111.805C9.73958 112.098 9.87956 112.41 9.9707 112.742C10.0618 113.068 10.1432 113.393 10.2148 113.719C10.2865 114.038 10.3678 114.344 10.459 114.637C10.5501 114.93 10.6901 115.19 10.8789 115.418C11.0742 115.646 11.3346 115.828 11.6602 115.965C11.9922 116.095 12.4316 116.16 12.9785 116.16V117.059ZM8.58398 107.225C8.58398 106.795 8.51888 106.417 8.38867 106.092C8.25846 105.76 8.05013 105.48 7.76367 105.252C7.48372 105.024 7.11914 104.852 6.66992 104.734C6.22721 104.617 5.6901 104.559 5.05859 104.559H4.14062V110.037C4.15365 110.037 4.19922 110.04 4.27734 110.047C4.35547 110.047 4.44336 110.047 4.54102 110.047C4.64518 110.047 4.74935 110.05 4.85352 110.057C4.96419 110.057 5.05859 110.057 5.13672 110.057C5.6901 110.057 6.18164 110.011 6.61133 109.92C7.04102 109.822 7.40234 109.663 7.69531 109.441C7.98828 109.22 8.20964 108.93 8.35938 108.572C8.50911 108.208 8.58398 107.758 8.58398 107.225ZM25.5273 104.52C25.3841 104.533 25.2767 104.585 25.2051 104.676C25.14 104.767 25.1074 104.861 25.1074 104.959V112.557C25.1074 113.377 24.9967 114.087 24.7754 114.686C24.554 115.285 24.2253 115.779 23.7891 116.17C23.3594 116.561 22.8223 116.85 22.1777 117.039C21.5397 117.228 20.804 117.322 19.9707 117.322C18.3171 117.322 17.0898 116.922 16.2891 116.121C15.4883 115.32 15.0879 114.132 15.0879 112.557V104.959C15.0879 104.861 15.0521 104.767 14.9805 104.676C14.9154 104.585 14.8112 104.533 14.668 104.52L13.6035 104.441V103.582H18.6914V104.441L17.5488 104.52C17.4056 104.533 17.2982 104.585 17.2266 104.676C17.1615 104.767 17.1289 104.861 17.1289 104.959V112.039C17.1289 112.625 17.1745 113.162 17.2656 113.65C17.3568 114.132 17.526 114.546 17.7734 114.891C18.0208 115.236 18.3626 115.506 18.7988 115.701C19.2415 115.89 19.8112 115.984 20.5078 115.984C21.1979 115.984 21.7643 115.883 22.207 115.682C22.6497 115.48 22.998 115.203 23.252 114.852C23.5059 114.493 23.6816 114.074 23.7793 113.592C23.877 113.11 23.9258 112.592 23.9258 112.039V104.959C23.9258 104.861 23.8867 104.767 23.8086 104.676C23.737 104.585 23.6296 104.533 23.4863 104.52L22.3438 104.441V103.582H26.6895V104.441L25.5273 104.52ZM39.082 117V116.141L40.1465 116.062C40.2897 116.049 40.3971 115.997 40.4688 115.906C40.5469 115.815 40.5859 115.721 40.5859 115.623V104.598L35.9863 117H34.9902L30.5469 104.783V115.623C30.5469 115.721 30.5827 115.815 30.6543 115.906C30.7324 115.997 30.8431 116.049 30.9863 116.062L32.1289 116.141V117H27.8027V116.141L28.9453 116.062C29.0885 116.049 29.1927 115.997 29.2578 115.906C29.3294 115.815 29.3652 115.721 29.3652 115.623V104.959C29.3652 104.861 29.3294 104.767 29.2578 104.676C29.1927 104.585 29.0885 104.533 28.9453 104.52L27.8027 104.441V103.582H32.2852V104.119L35.9082 113.943L39.5312 104.178V103.582H44.1309V104.441L43.0469 104.52C42.9036 104.533 42.793 104.585 42.7148 104.676C42.6432 104.767 42.6074 104.861 42.6074 104.959V115.623C42.6074 115.721 42.6432 115.815 42.7148 115.906C42.793 115.997 42.9036 116.049 43.0469 116.062L44.1309 116.141V117H39.082ZM58.584 110.301C58.584 111.271 58.4277 112.182 58.1152 113.035C57.8027 113.888 57.36 114.633 56.7871 115.271C56.2207 115.903 55.5371 116.404 54.7363 116.775C53.9355 117.14 53.0469 117.322 52.0703 117.322C51.0872 117.322 50.1921 117.146 49.3848 116.795C48.584 116.437 47.8971 115.942 47.3242 115.311C46.7513 114.679 46.3086 113.937 45.9961 113.084C45.6836 112.225 45.5273 111.29 45.5273 110.281C45.5273 109.305 45.6803 108.39 45.9863 107.537C46.2923 106.684 46.7285 105.942 47.2949 105.311C47.8613 104.673 48.5449 104.171 49.3457 103.807C50.153 103.442 51.0547 103.26 52.0508 103.26C53.0404 103.26 53.9355 103.445 54.7363 103.816C55.5436 104.188 56.2305 104.692 56.7969 105.33C57.3698 105.968 57.8092 106.714 58.1152 107.566C58.4277 108.419 58.584 109.331 58.584 110.301ZM56.2695 110.32C56.2695 109.507 56.1816 108.742 56.0059 108.025C55.8301 107.303 55.5664 106.674 55.2148 106.141C54.8633 105.6 54.4238 105.177 53.8965 104.871C53.3757 104.559 52.7669 104.402 52.0703 104.402C51.3477 104.402 50.7194 104.559 50.1855 104.871C49.6517 105.184 49.209 105.61 48.8574 106.15C48.5059 106.684 48.2454 107.309 48.0762 108.025C47.9069 108.735 47.8223 109.487 47.8223 110.281C47.8223 111.082 47.9069 111.844 48.0762 112.566C48.252 113.283 48.5124 113.911 48.8574 114.451C49.209 114.992 49.6452 115.421 50.166 115.74C50.6934 116.059 51.3118 116.219 52.0215 116.219C52.7441 116.219 53.3691 116.059 53.8965 115.74C54.4303 115.421 54.873 114.995 55.2246 114.461C55.5762 113.921 55.8366 113.296 56.0059 112.586C56.1816 111.87 56.2695 111.115 56.2695 110.32ZM81.3574 117.059C81.3118 117.065 81.2467 117.081 81.1621 117.107C81.0775 117.133 80.9766 117.163 80.8594 117.195C80.7422 117.228 80.612 117.257 80.4688 117.283C80.332 117.309 80.1888 117.322 80.0391 117.322C79.4401 117.322 78.9551 117.231 78.584 117.049C78.2129 116.873 77.9102 116.639 77.6758 116.346C77.4479 116.046 77.2689 115.708 77.1387 115.33C77.0085 114.952 76.888 114.568 76.7773 114.178C76.6667 113.781 76.543 113.393 76.4062 113.016C76.276 112.638 76.0905 112.303 75.8496 112.01C75.6087 111.71 75.2962 111.473 74.9121 111.297C74.528 111.115 74.0299 111.023 73.418 111.023C73.3138 111.023 73.2096 111.027 73.1055 111.033C73.0013 111.033 72.9069 111.036 72.8223 111.043C72.7441 111.049 72.6758 111.056 72.6172 111.062C72.5586 111.062 72.526 111.062 72.5195 111.062V115.623C72.5195 115.721 72.5521 115.815 72.6172 115.906C72.6888 115.997 72.7962 116.049 72.9395 116.062L73.9941 116.141V117H69.0234V116.141L70.0586 116.062C70.2018 116.049 70.3092 115.997 70.3809 115.906C70.459 115.815 70.498 115.721 70.498 115.623V104.959C70.498 104.861 70.459 104.767 70.3809 104.676C70.3092 104.585 70.2018 104.533 70.0586 104.52L69.0234 104.441V103.582H74.2383C75 103.582 75.6836 103.644 76.2891 103.768C76.8945 103.891 77.4089 104.093 77.832 104.373C78.2552 104.653 78.5775 105.021 78.7988 105.477C79.0267 105.926 79.1406 106.479 79.1406 107.137C79.1406 107.664 79.0495 108.117 78.8672 108.494C78.6849 108.872 78.4408 109.191 78.1348 109.451C77.8353 109.712 77.487 109.923 77.0898 110.086C76.6927 110.249 76.2826 110.379 75.8594 110.477C76.3997 110.607 76.8327 110.789 77.1582 111.023C77.4837 111.251 77.7409 111.512 77.9297 111.805C78.1185 112.098 78.2585 112.41 78.3496 112.742C78.4408 113.068 78.5221 113.393 78.5938 113.719C78.6654 114.038 78.7467 114.344 78.8379 114.637C78.929 114.93 79.069 115.19 79.2578 115.418C79.4531 115.646 79.7135 115.828 80.0391 115.965C80.3711 116.095 80.8105 116.16 81.3574 116.16V117.059ZM76.9629 107.225C76.9629 106.795 76.8978 106.417 76.7676 106.092C76.6374 105.76 76.429 105.48 76.1426 105.252C75.8626 105.024 75.498 104.852 75.0488 104.734C74.6061 104.617 74.069 104.559 73.4375 104.559H72.5195V110.037C72.5326 110.037 72.5781 110.04 72.6562 110.047C72.7344 110.047 72.8223 110.047 72.9199 110.047C73.0241 110.047 73.1283 110.05 73.2324 110.057C73.3431 110.057 73.4375 110.057 73.5156 110.057C74.069 110.057 74.5605 110.011 74.9902 109.92C75.4199 109.822 75.7812 109.663 76.0742 109.441C76.3672 109.22 76.5885 108.93 76.7383 108.572C76.888 108.208 76.9629 107.758 76.9629 107.225ZM90.4883 116.004C90.2083 116.18 89.9154 116.342 89.6094 116.492C89.3099 116.642 88.9974 116.772 88.6719 116.883C88.3529 116.993 88.0273 117.081 87.6953 117.146C87.3633 117.212 87.028 117.244 86.6895 117.244C86.084 117.244 85.5013 117.143 84.9414 116.941C84.3815 116.733 83.8867 116.424 83.457 116.014C83.0339 115.604 82.6921 115.089 82.4316 114.471C82.1777 113.846 82.0508 113.117 82.0508 112.283C82.0508 111.502 82.168 110.796 82.4023 110.164C82.6367 109.526 82.9622 108.982 83.3789 108.533C83.7956 108.077 84.2904 107.729 84.8633 107.488C85.4362 107.241 86.0645 107.117 86.748 107.117C87.3665 107.117 87.9102 107.221 88.3789 107.43C88.8477 107.632 89.2383 107.915 89.5508 108.279C89.8633 108.637 90.0977 109.07 90.2539 109.578C90.4102 110.079 90.4883 110.626 90.4883 111.219V111.482C90.4883 111.587 90.4818 111.684 90.4688 111.775H83.9844C83.9844 112.283 84.0365 112.791 84.1406 113.299C84.2513 113.807 84.4336 114.262 84.6875 114.666C84.9414 115.07 85.2832 115.398 85.7129 115.652C86.1426 115.9 86.6797 116.023 87.3242 116.023C87.6107 116.023 87.8939 115.988 88.1738 115.916C88.4538 115.838 88.7272 115.74 88.9941 115.623C89.2676 115.506 89.528 115.376 89.7754 115.232C90.0228 115.083 90.2604 114.933 90.4883 114.783V116.004ZM88.4863 110.438C88.4863 110.105 88.4473 109.799 88.3691 109.52C88.291 109.233 88.1706 108.986 88.0078 108.777C87.8516 108.569 87.6497 108.406 87.4023 108.289C87.1615 108.165 86.875 108.104 86.543 108.104C86.2109 108.104 85.9017 108.169 85.6152 108.299C85.3288 108.423 85.0749 108.605 84.8535 108.846C84.6387 109.087 84.4629 109.38 84.3262 109.725C84.196 110.063 84.1178 110.447 84.0918 110.877H88.4863V110.438ZM98.4473 114.1C98.4473 114.588 98.3594 115.027 98.1836 115.418C98.0078 115.809 97.7572 116.141 97.4316 116.414C97.1061 116.681 96.7057 116.886 96.2305 117.029C95.7552 117.173 95.2214 117.244 94.6289 117.244C94.3229 117.244 94.0234 117.225 93.7305 117.186C93.444 117.153 93.1771 117.107 92.9297 117.049C92.6888 116.997 92.474 116.941 92.2852 116.883C92.0964 116.824 91.9531 116.775 91.8555 116.736V114.08H92.8711L93.1152 115.779C93.3171 115.91 93.5645 116.036 93.8574 116.16C94.1569 116.277 94.502 116.336 94.8926 116.336C95.179 116.336 95.4329 116.294 95.6543 116.209C95.8757 116.118 96.0612 116.001 96.2109 115.857C96.3672 115.714 96.4844 115.551 96.5625 115.369C96.6471 115.18 96.6895 114.985 96.6895 114.783C96.6895 114.523 96.6406 114.298 96.543 114.109C96.4453 113.914 96.3021 113.742 96.1133 113.592C95.931 113.436 95.7031 113.289 95.4297 113.152C95.1628 113.009 94.8568 112.853 94.5117 112.684L94.248 112.557C93.8835 112.381 93.5612 112.208 93.2812 112.039C93.0013 111.863 92.7637 111.678 92.5684 111.482C92.3796 111.281 92.2363 111.062 92.1387 110.828C92.041 110.587 91.9922 110.317 91.9922 110.018C91.9922 109.575 92.0703 109.174 92.2266 108.816C92.3893 108.458 92.6237 108.156 92.9297 107.908C93.2357 107.654 93.61 107.459 94.0527 107.322C94.502 107.186 95.0163 107.117 95.5957 107.117C95.8887 107.117 96.1686 107.133 96.4355 107.166C96.7025 107.199 96.9466 107.238 97.168 107.283C97.3893 107.329 97.5846 107.378 97.7539 107.43C97.9232 107.482 98.0566 107.531 98.1543 107.576V109.939H97.1094L96.9531 108.543C96.8099 108.432 96.5983 108.328 96.3184 108.23C96.0384 108.133 95.7422 108.084 95.4297 108.084C94.8763 108.084 94.4661 108.211 94.1992 108.465C93.9388 108.712 93.8086 109.031 93.8086 109.422C93.8086 109.65 93.8444 109.848 93.916 110.018C93.9941 110.187 94.1178 110.346 94.2871 110.496C94.4629 110.646 94.694 110.799 94.9805 110.955C95.2669 111.105 95.6217 111.274 96.0449 111.463C96.39 111.619 96.709 111.785 97.002 111.961C97.2949 112.13 97.5488 112.322 97.7637 112.537C97.9785 112.745 98.1445 112.977 98.2617 113.23C98.3854 113.484 98.4473 113.774 98.4473 114.1ZM105.801 116.58C105.553 116.704 105.283 116.814 104.99 116.912C104.743 116.997 104.456 117.072 104.131 117.137C103.805 117.208 103.464 117.244 103.105 117.244C102.35 117.244 101.803 117.068 101.465 116.717C101.126 116.365 100.957 115.792 100.957 114.998V108.357H99.6777V107.703L101.045 107.059L101.943 104.939H102.822V107.361H105.645V108.357H102.822V113.943C102.822 114.34 102.855 114.679 102.92 114.959C102.992 115.232 103.092 115.457 103.223 115.633C103.359 115.802 103.525 115.926 103.721 116.004C103.923 116.082 104.157 116.121 104.424 116.121C104.619 116.121 104.798 116.105 104.961 116.072C105.13 116.04 105.277 116.001 105.4 115.955C105.544 115.903 105.677 115.844 105.801 115.779V116.58ZM112.822 117L112.559 115.818C112.207 116.085 111.846 116.323 111.475 116.531C111.312 116.622 111.139 116.71 110.957 116.795C110.775 116.88 110.586 116.954 110.391 117.02C110.202 117.091 110.007 117.146 109.805 117.186C109.609 117.225 109.414 117.244 109.219 117.244C108.854 117.244 108.512 117.182 108.193 117.059C107.881 116.935 107.607 116.756 107.373 116.521C107.139 116.287 106.953 116.004 106.816 115.672C106.686 115.34 106.621 114.962 106.621 114.539C106.621 114.292 106.644 114.057 106.689 113.836C106.742 113.615 106.842 113.4 106.992 113.191C107.142 112.983 107.35 112.785 107.617 112.596C107.891 112.4 108.245 112.208 108.682 112.02C109.124 111.831 109.661 111.645 110.293 111.463C110.931 111.274 111.686 111.085 112.559 110.896V110.037C112.559 109.367 112.409 108.872 112.109 108.553C111.81 108.227 111.338 108.064 110.693 108.064C110.342 108.064 110.042 108.097 109.795 108.162C109.548 108.227 109.375 108.279 109.277 108.318V110.057H107.822C107.731 110.057 107.64 110.05 107.549 110.037C107.464 110.024 107.386 109.998 107.314 109.959C107.243 109.913 107.184 109.855 107.139 109.783C107.1 109.705 107.08 109.604 107.08 109.48C107.08 109.07 107.204 108.719 107.451 108.426C107.699 108.126 108.021 107.879 108.418 107.684C108.815 107.488 109.261 107.345 109.756 107.254C110.251 107.163 110.745 107.117 111.24 107.117C111.859 107.117 112.37 107.192 112.773 107.342C113.184 107.492 113.506 107.7 113.74 107.967C113.981 108.234 114.15 108.549 114.248 108.914C114.346 109.279 114.395 109.679 114.395 110.115V115.721C114.395 115.844 114.434 115.945 114.512 116.023C114.596 116.102 114.697 116.147 114.814 116.16L115.781 116.219V117H112.822ZM112.559 111.658C111.66 111.886 110.947 112.111 110.42 112.332C109.893 112.553 109.492 112.778 109.219 113.006C108.952 113.227 108.779 113.455 108.701 113.689C108.63 113.917 108.594 114.155 108.594 114.402C108.594 114.611 108.626 114.816 108.691 115.018C108.763 115.213 108.861 115.389 108.984 115.545C109.115 115.701 109.271 115.828 109.453 115.926C109.642 116.017 109.857 116.062 110.098 116.062C110.365 116.062 110.641 116.014 110.928 115.916C111.221 115.818 111.488 115.711 111.729 115.594C112.008 115.457 112.285 115.298 112.559 115.115V111.658ZM123.896 117V115.857C123.727 115.988 123.519 116.134 123.271 116.297C123.031 116.46 122.767 116.613 122.48 116.756C122.201 116.893 121.904 117.007 121.592 117.098C121.286 117.195 120.986 117.244 120.693 117.244C120.264 117.244 119.876 117.179 119.531 117.049C119.193 116.925 118.903 116.733 118.662 116.473C118.428 116.206 118.245 115.87 118.115 115.467C117.992 115.057 117.93 114.568 117.93 114.002V108.582H116.533V107.898L118.994 107.117H119.795V113.621C119.795 113.973 119.827 114.288 119.893 114.568C119.964 114.848 120.075 115.086 120.225 115.281C120.381 115.477 120.583 115.626 120.83 115.73C121.077 115.828 121.377 115.877 121.729 115.877C121.93 115.877 122.135 115.857 122.344 115.818C122.552 115.779 122.751 115.73 122.939 115.672C123.128 115.607 123.304 115.542 123.467 115.477C123.636 115.405 123.779 115.34 123.896 115.281V108.582H122.49V107.898L124.932 107.117H125.752V115.721C125.752 115.844 125.794 115.945 125.879 116.023C125.97 116.102 126.074 116.147 126.191 116.16L127.07 116.219V117H123.896ZM134.336 109.402C134.206 109.253 134.056 109.126 133.887 109.021C133.717 108.911 133.509 108.855 133.262 108.855C132.936 108.855 132.607 108.966 132.275 109.188C131.943 109.402 131.605 109.705 131.26 110.096V115.721C131.26 115.844 131.299 115.949 131.377 116.033C131.455 116.111 131.556 116.154 131.68 116.16L132.998 116.219V117H127.998V116.238L128.984 116.16C129.102 116.147 129.199 116.102 129.277 116.023C129.362 115.945 129.404 115.844 129.404 115.721V108.777H127.959V108.123L130.439 107.361H131.26V109.139C131.403 108.982 131.576 108.79 131.777 108.562C131.986 108.328 132.207 108.104 132.441 107.889C132.676 107.674 132.917 107.492 133.164 107.342C133.418 107.192 133.662 107.117 133.896 107.117C134.001 107.117 134.111 107.127 134.229 107.146C134.346 107.166 134.46 107.192 134.57 107.225C134.681 107.251 134.782 107.283 134.873 107.322C134.971 107.355 135.052 107.387 135.117 107.42V109.402H134.336ZM142.217 117L141.953 115.818C141.602 116.085 141.24 116.323 140.869 116.531C140.706 116.622 140.534 116.71 140.352 116.795C140.169 116.88 139.98 116.954 139.785 117.02C139.596 117.091 139.401 117.146 139.199 117.186C139.004 117.225 138.809 117.244 138.613 117.244C138.249 117.244 137.907 117.182 137.588 117.059C137.275 116.935 137.002 116.756 136.768 116.521C136.533 116.287 136.348 116.004 136.211 115.672C136.081 115.34 136.016 114.962 136.016 114.539C136.016 114.292 136.038 114.057 136.084 113.836C136.136 113.615 136.237 113.4 136.387 113.191C136.536 112.983 136.745 112.785 137.012 112.596C137.285 112.4 137.64 112.208 138.076 112.02C138.519 111.831 139.056 111.645 139.688 111.463C140.326 111.274 141.081 111.085 141.953 110.896V110.037C141.953 109.367 141.803 108.872 141.504 108.553C141.204 108.227 140.732 108.064 140.088 108.064C139.736 108.064 139.437 108.097 139.189 108.162C138.942 108.227 138.77 108.279 138.672 108.318V110.057H137.217C137.126 110.057 137.035 110.05 136.943 110.037C136.859 110.024 136.781 109.998 136.709 109.959C136.637 109.913 136.579 109.855 136.533 109.783C136.494 109.705 136.475 109.604 136.475 109.48C136.475 109.07 136.598 108.719 136.846 108.426C137.093 108.126 137.415 107.879 137.812 107.684C138.21 107.488 138.656 107.345 139.15 107.254C139.645 107.163 140.14 107.117 140.635 107.117C141.253 107.117 141.764 107.192 142.168 107.342C142.578 107.492 142.9 107.7 143.135 107.967C143.376 108.234 143.545 108.549 143.643 108.914C143.74 109.279 143.789 109.679 143.789 110.115V115.721C143.789 115.844 143.828 115.945 143.906 116.023C143.991 116.102 144.092 116.147 144.209 116.16L145.176 116.219V117H142.217ZM141.953 111.658C141.055 111.886 140.342 112.111 139.814 112.332C139.287 112.553 138.887 112.778 138.613 113.006C138.346 113.227 138.174 113.455 138.096 113.689C138.024 113.917 137.988 114.155 137.988 114.402C137.988 114.611 138.021 114.816 138.086 115.018C138.158 115.213 138.255 115.389 138.379 115.545C138.509 115.701 138.665 115.828 138.848 115.926C139.036 116.017 139.251 116.062 139.492 116.062C139.759 116.062 140.036 116.014 140.322 115.916C140.615 115.818 140.882 115.711 141.123 115.594C141.403 115.457 141.68 115.298 141.953 115.115V111.658ZM152.031 117V116.219L152.871 116.16C152.988 116.147 153.086 116.102 153.164 116.023C153.249 115.945 153.291 115.844 153.291 115.721V110.516C153.291 109.884 153.145 109.406 152.852 109.08C152.559 108.748 152.064 108.582 151.367 108.582C150.983 108.582 150.605 108.637 150.234 108.748C149.863 108.852 149.508 108.989 149.17 109.158V115.721C149.17 115.844 149.209 115.945 149.287 116.023C149.365 116.102 149.466 116.147 149.59 116.16L150.43 116.219V117H145.908V116.219L146.885 116.16C147.008 116.147 147.109 116.102 147.188 116.023C147.266 115.945 147.305 115.844 147.305 115.721V108.777H145.908V108.123L148.35 107.361H149.17V108.357C149.45 108.201 149.733 108.048 150.02 107.898C150.312 107.749 150.602 107.615 150.889 107.498C151.175 107.381 151.452 107.29 151.719 107.225C151.986 107.153 152.236 107.117 152.471 107.117C153.343 107.117 154.007 107.387 154.463 107.928C154.919 108.468 155.146 109.227 155.146 110.203V115.721C155.146 115.844 155.186 115.945 155.264 116.023C155.348 116.102 155.449 116.147 155.566 116.16L156.445 116.219V117H152.031ZM163.516 116.58C163.268 116.704 162.998 116.814 162.705 116.912C162.458 116.997 162.171 117.072 161.846 117.137C161.52 117.208 161.178 117.244 160.82 117.244C160.065 117.244 159.518 117.068 159.18 116.717C158.841 116.365 158.672 115.792 158.672 114.998V108.357H157.393V107.703L158.76 107.059L159.658 104.939H160.537V107.361H163.359V108.357H160.537V113.943C160.537 114.34 160.57 114.679 160.635 114.959C160.706 115.232 160.807 115.457 160.938 115.633C161.074 115.802 161.24 115.926 161.436 116.004C161.637 116.082 161.872 116.121 162.139 116.121C162.334 116.121 162.513 116.105 162.676 116.072C162.845 116.04 162.992 116.001 163.115 115.955C163.258 115.903 163.392 115.844 163.516 115.779V116.58ZM172.773 116.004C172.493 116.18 172.201 116.342 171.895 116.492C171.595 116.642 171.283 116.772 170.957 116.883C170.638 116.993 170.312 117.081 169.98 117.146C169.648 117.212 169.313 117.244 168.975 117.244C168.369 117.244 167.786 117.143 167.227 116.941C166.667 116.733 166.172 116.424 165.742 116.014C165.319 115.604 164.977 115.089 164.717 114.471C164.463 113.846 164.336 113.117 164.336 112.283C164.336 111.502 164.453 110.796 164.688 110.164C164.922 109.526 165.247 108.982 165.664 108.533C166.081 108.077 166.576 107.729 167.148 107.488C167.721 107.241 168.35 107.117 169.033 107.117C169.652 107.117 170.195 107.221 170.664 107.43C171.133 107.632 171.523 107.915 171.836 108.279C172.148 108.637 172.383 109.07 172.539 109.578C172.695 110.079 172.773 110.626 172.773 111.219V111.482C172.773 111.587 172.767 111.684 172.754 111.775H166.27C166.27 112.283 166.322 112.791 166.426 113.299C166.536 113.807 166.719 114.262 166.973 114.666C167.227 115.07 167.568 115.398 167.998 115.652C168.428 115.9 168.965 116.023 169.609 116.023C169.896 116.023 170.179 115.988 170.459 115.916C170.739 115.838 171.012 115.74 171.279 115.623C171.553 115.506 171.813 115.376 172.061 115.232C172.308 115.083 172.546 114.933 172.773 114.783V116.004ZM170.771 110.438C170.771 110.105 170.732 109.799 170.654 109.52C170.576 109.233 170.456 108.986 170.293 108.777C170.137 108.569 169.935 108.406 169.688 108.289C169.447 108.165 169.16 108.104 168.828 108.104C168.496 108.104 168.187 108.169 167.9 108.299C167.614 108.423 167.36 108.605 167.139 108.846C166.924 109.087 166.748 109.38 166.611 109.725C166.481 110.063 166.403 110.447 166.377 110.877H170.771V110.438ZM180.732 114.1C180.732 114.588 180.645 115.027 180.469 115.418C180.293 115.809 180.042 116.141 179.717 116.414C179.391 116.681 178.991 116.886 178.516 117.029C178.04 117.173 177.507 117.244 176.914 117.244C176.608 117.244 176.309 117.225 176.016 117.186C175.729 117.153 175.462 117.107 175.215 117.049C174.974 116.997 174.759 116.941 174.57 116.883C174.382 116.824 174.238 116.775 174.141 116.736V114.08H175.156L175.4 115.779C175.602 115.91 175.85 116.036 176.143 116.16C176.442 116.277 176.787 116.336 177.178 116.336C177.464 116.336 177.718 116.294 177.939 116.209C178.161 116.118 178.346 116.001 178.496 115.857C178.652 115.714 178.77 115.551 178.848 115.369C178.932 115.18 178.975 114.985 178.975 114.783C178.975 114.523 178.926 114.298 178.828 114.109C178.73 113.914 178.587 113.742 178.398 113.592C178.216 113.436 177.988 113.289 177.715 113.152C177.448 113.009 177.142 112.853 176.797 112.684L176.533 112.557C176.169 112.381 175.846 112.208 175.566 112.039C175.286 111.863 175.049 111.678 174.854 111.482C174.665 111.281 174.521 111.062 174.424 110.828C174.326 110.587 174.277 110.317 174.277 110.018C174.277 109.575 174.355 109.174 174.512 108.816C174.674 108.458 174.909 108.156 175.215 107.908C175.521 107.654 175.895 107.459 176.338 107.322C176.787 107.186 177.301 107.117 177.881 107.117C178.174 107.117 178.454 107.133 178.721 107.166C178.988 107.199 179.232 107.238 179.453 107.283C179.674 107.329 179.87 107.378 180.039 107.43C180.208 107.482 180.342 107.531 180.439 107.576V109.939H179.395L179.238 108.543C179.095 108.432 178.883 108.328 178.604 108.23C178.324 108.133 178.027 108.084 177.715 108.084C177.161 108.084 176.751 108.211 176.484 108.465C176.224 108.712 176.094 109.031 176.094 109.422C176.094 109.65 176.13 109.848 176.201 110.018C176.279 110.187 176.403 110.346 176.572 110.496C176.748 110.646 176.979 110.799 177.266 110.955C177.552 111.105 177.907 111.274 178.33 111.463C178.675 111.619 178.994 111.785 179.287 111.961C179.58 112.13 179.834 112.322 180.049 112.537C180.264 112.745 180.43 112.977 180.547 113.23C180.671 113.484 180.732 113.774 180.732 114.1Z" fill="#08AADF"/>
</svg>
